<svg xmlns="http://www.w3.org/2000/svg" xmlns:xlink="http://www.w3.org/1999/xlink" width="35" height="35" viewBox="0 0 35 35"><defs><path id="af68a" d="M1079.91 5019.47c-1.5 2.31-3.6 4.23-5.96 5.77a12.52 12.52 0 0 1-5.2 9.43 1.5 1.5 0 0 1-2.35-.97 13.15 13.15 0 0 0-1.73-4.35 31.18 31.18 0 0 1-3.13.68c-.4 0-.78-.16-1.06-.44l-4.07-4.07a1.5 1.5 0 0 1-.42-1.32c.16-.9.38-1.88.65-2.87-1.5-.9-3-1.5-4.34-1.73a1.5 1.5 0 0 1-.97-2.35 12.52 12.52 0 0 1 9.42-5.2 20.4 20.4 0 0 1 5.77-5.97c4.38-2.85 9.59-3.08 14.98-3.08.83 0 1.5.67 1.5 1.5 0 5.18-.24 10.6-3.09 14.97zm-11.44 12.19a10 10 0 0 0 2.74-4.83 33.67 33.67 0 0 1-4.1 1.76 16.84 16.84 0 0 1 1.36 3.07zm-14.13-14.13c1 .32 2.04.78 3.07 1.35a33.68 33.68 0 0 1 1.76-4.1 10 10 0 0 0-4.83 2.75zm13.82-8.93c-4.77 3.1-7.94 9.81-9.07 15.36l2.95 2.94c5.55-1.13 12.25-4.29 15.36-9.06 2.15-3.32 2.54-7.46 2.6-11.83-4.38.05-8.53.43-11.84 2.59zm4.34 7.4a2.5 2.5 0 1 1 0-5 2.5 2.5 0 0 1 0 5zm-19.4 13.77a2.5 2.5 0 1 1 3.13 3.12l-3.58 1.09a.5.5 0 0 1-.62-.62z"/></defs><g><g transform="translate(-1049 -5001)"><use fill="#17daa3" xlink:href="#af68a"/></g></g></svg>