<svg xmlns="http://www.w3.org/2000/svg" xmlns:xlink="http://www.w3.org/1999/xlink" width="75" height="56" viewBox="0 0 75 56"><defs><path id="orgga" d="M1225.73 1562.97l-8.47-19.08a3.18 3.18 0 0 0-6 .58l-8.37 36.86-11.01-26.76a3.18 3.18 0 0 0-5.86-.04l-10 23.37-5.41-10.82a3.18 3.18 0 0 0-5.28-.62l-10.6 12.72a3.18 3.18 0 0 0 4.89 4.07l7.48-8.98 6.3 12.61a3.18 3.18 0 0 0 5.76-.17l9.72-22.72 11.95 29.04a3.18 3.18 0 0 0 6.03-.5l8.47-37.31 4.59 10.33a3.18 3.18 0 1 0 5.8-2.58z"/></defs><g><g transform="translate(-1153 -1540)"><use fill="#87949e" xlink:href="#orgga"/></g></g></svg>