<svg xmlns="http://www.w3.org/2000/svg" xmlns:xlink="http://www.w3.org/1999/xlink" width="53" height="57" viewBox="0 0 53 57"><defs><path id="dtcca" d="M834.19 1582.5c-1.37 2.35-4.18 3.55-8.06 3.55-1.54 0-3.25-.2-5.1-.58-2.13 6.73-5.53 10.54-9.53 10.54-4 0-7.4-3.8-9.53-10.53-1.9.4-3.64.58-5.19.58-3.85 0-6.59-1.18-7.97-3.56-1.92-3.31-.39-7.98 4.2-13-4.59-5.02-6.12-9.69-4.2-13 1.9-3.28 6.64-4.32 13.16-2.97 2.13-6.73 5.53-10.54 9.53-10.54 4 0 7.4 3.8 9.53 10.54 2.06-.43 3.92-.63 5.58-.6 3.64.08 6.25 1.28 7.58 3.56 1.92 3.32.39 7.99-4.2 13 4.59 5.03 6.12 9.7 4.2 13.01zm-28-.6c1.65 6.66 4.13 9.14 5.31 9.14 1.04 0 3.08-1.92 4.68-6.9-1.87-.63-3.8-1.4-5.76-2.33a62.72 62.72 0 0 1-4.68-2.43l-.07-.04c.16.86.31 1.74.52 2.56zm-13-1.87c.47.82 2.92 1.56 7.61.61a54.5 54.5 0 0 1-1.05-10.72c-.52.45-1.02.9-1.5 1.36-4.74 4.56-5.62 7.79-5.06 8.75zm9.87-21.14c-6.18-1.71-9.33-.86-9.88.08-.48.83.13 3.4 3.44 7.06a55.86 55.86 0 0 1 4.37-3.4 64.34 64.34 0 0 1 4.61-2.93c-.86-.3-1.71-.58-2.54-.8zm13.75-1.8c-1.65-6.65-4.13-9.13-5.31-9.13-1.04 0-3.08 1.92-4.68 6.9 1.87.63 3.8 1.4 5.76 2.33 1.6.75 3.18 1.57 4.68 2.43l.07.04c-.16-.87-.31-1.74-.52-2.57zm1.27 8.93a59.89 59.89 0 0 0-3.36-2.1 60.27 60.27 0 0 0-3.22-1.71c-1.1.54-2.18 1.1-3.22 1.7a59.53 59.53 0 0 0-3.36 2.1c-.07 1.16-.14 2.31-.14 3.49 0 1.18.07 2.33.14 3.48a57.19 57.19 0 0 0 6.58 3.8c1.1-.53 2.19-1.1 3.22-1.7a60.22 60.22 0 0 0 3.36-2.1c.07-1.15.14-2.3.14-3.48 0-1.18-.07-2.33-.14-3.48zm-.68 13.27c.86.3 1.71.59 2.54.81 6.17 1.72 9.33.87 9.88-.07.48-.84-.13-3.4-3.43-7.06a56.84 56.84 0 0 1-8.99 6.32zm12.42-20.33c-.48-.8-2.93-1.55-7.62-.6a54.56 54.56 0 0 1 1.05 10.72c.52-.45 1.02-.9 1.5-1.36 4.74-4.56 5.62-7.8 5.07-8.76zm-18.32 13.85a3.34 3.34 0 0 1-3.36-3.31c0-1.83 1.5-3.32 3.36-3.32a3.34 3.34 0 0 1 3.36 3.32c0 1.83-1.5 3.31-3.36 3.31z"/></defs><g><g transform="translate(-785 -1541)"><use fill="#fff" xlink:href="#dtcca"/></g></g></svg>