<svg xmlns="http://www.w3.org/2000/svg" xmlns:xlink="http://www.w3.org/1999/xlink" width="56" height="57" viewBox="0 0 56 57"><defs><path id="itf3a" d="M458.88 1570.32c-2.5 3.83-5.98 7.01-9.88 9.58a20.77 20.77 0 0 1-8.64 15.64 2.5 2.5 0 0 1-3.9-1.61 21.81 21.81 0 0 0-2.86-7.22c-1.66.45-3.27.82-4.77 1.08a2.48 2.48 0 0 1-2.19-.7l-6.75-6.74a2.49 2.49 0 0 1-.69-2.18c.26-1.5.63-3.11 1.08-4.77a21.79 21.79 0 0 0-7.21-2.86 2.49 2.49 0 0 1-1.61-3.9 20.77 20.77 0 0 1 15.64-8.64c2.56-3.9 5.74-7.4 9.57-9.88 7.26-4.73 15.9-5.12 24.84-5.12a2.49 2.49 0 0 1 2.49 2.48c0 8.6-.4 17.59-5.12 24.84zm-18.99 20.22a16.6 16.6 0 0 0 4.55-8.01 55.79 55.79 0 0 1-6.78 2.91 27.92 27.92 0 0 1 2.23 5.1zm-23.43-23.43c1.66.52 3.38 1.28 5.1 2.23.8-2.26 1.76-4.54 2.9-6.78a16.6 16.6 0 0 0-8 4.55zm22.93-14.82c-7.92 5.15-13.17 16.27-15.05 25.47l4.9 4.9c9.2-1.88 20.31-7.13 25.47-15.05 3.57-5.5 4.2-12.37 4.3-19.62-7.26.09-14.13.72-19.62 4.3zm7.2 12.27a4.15 4.15 0 1 1 0-8.3 4.15 4.15 0 0 1 0 8.3zm-32.18 22.85a4.15 4.15 0 1 1 5.18 5.17l-5.94 1.8a.83.83 0 0 1-1.04-1.04z"/></defs><g><g transform="translate(-409 -1541)"><use fill="#87949e" xlink:href="#itf3a"/></g></g></svg>